<svg width="145" height="145" viewBox="0 0 145 145" fill="none" xmlns="http://www.w3.org/2000/svg">
<g clip-path="url(#clip0_1632_7077)">
<path fill-rule="evenodd" clip-rule="evenodd" d="M84.333 63.9746C84.333 57.3477 78.96 51.9746 72.333 51.9746C65.7061 51.9746 60.333 57.3477 60.333 63.9746V69.9746H57.333C55.6762 69.9746 54.333 71.3178 54.333 72.9746V90.9746C54.333 92.6315 55.6762 93.9746 57.333 93.9746H87.333C88.9899 93.9746 90.333 92.6315 90.333 90.9746V72.9746C90.333 71.3178 88.9899 69.9746 87.333 69.9746H84.333V63.9746ZM79.833 69.9746V63.9746C79.833 59.832 76.4756 56.4746 72.333 56.4746C68.1904 56.4746 64.833 59.832 64.833 63.9746V69.9746H79.833Z" fill="#FAFAF9"></path>
<path d="M73.0479 -0.162109L75.4052 7.09315H83.0339L76.8622 11.5772L79.2196 18.8324L73.0479 14.3484L66.8761 18.8324L69.2335 11.5772L63.0618 7.09315H70.6905L73.0479 -0.162109Z" fill="#FAFAF9"></path>
<path d="M103.288 11.3574L105.645 18.6127H113.274L107.102 23.0967L109.46 30.3519L103.288 25.8679L97.1163 30.3519L99.4737 23.0967L93.302 18.6127H100.931L103.288 11.3574Z" fill="#FAFAF9"></path>
<path d="M41.3721 11.3574L39.0147 18.6127H31.386L37.5577 23.0967L35.2003 30.3519L41.3721 25.8679L47.5438 30.3519L45.1864 23.0967L51.3582 18.6127H43.7295L41.3721 11.3574Z" fill="#FAFAF9"></path>
<path d="M110.489 119.359L112.847 126.615H120.475L114.304 131.099L116.661 138.354L110.489 133.87L104.318 138.354L106.675 131.099L100.503 126.615H108.132L110.489 119.359Z" fill="#FAFAF9"></path>
<path d="M34.1709 119.359L31.8135 126.615H24.1848L30.3566 131.099L27.9992 138.354L34.1709 133.87L40.3426 138.354L37.9852 131.099L44.157 126.615H36.5283L34.1709 119.359Z" fill="#FAFAF9"></path>
<path d="M129.21 93.4355L131.567 100.691H139.196L133.024 105.175L135.382 112.43L129.21 107.946L123.038 112.43L125.396 105.175L119.224 100.691H126.853L129.21 93.4355Z" fill="#FAFAF9"></path>
<path d="M15.4443 93.4355L13.0869 100.691H5.45824L11.63 105.175L9.27259 112.43L15.4443 107.946L21.6161 112.43L19.2587 105.175L25.4304 100.691H17.8017L15.4443 93.4355Z" fill="#FAFAF9"></path>
<path d="M134.97 61.7598L137.327 69.015H144.956L138.784 73.499L141.141 80.7543L134.97 76.2703L128.798 80.7543L131.155 73.499L124.984 69.015H132.612L134.97 61.7598Z" fill="#FAFAF9"></path>
<path d="M9.69043 61.7598L7.33303 69.015H-0.295664L5.87608 73.499L3.51868 80.7543L9.69043 76.2703L15.8622 80.7543L13.5048 73.499L19.6765 69.015H12.0478L9.69043 61.7598Z" fill="#FAFAF9"></path>
<path d="M129.21 30.0781L131.567 37.3334H139.196L133.024 41.8174L135.382 49.0727L129.21 44.5887L123.038 49.0727L125.396 41.8174L119.224 37.3334H126.853L129.21 30.0781Z" fill="#FAFAF9"></path>
<path d="M15.4443 30.0781L13.0869 37.3334H5.45824L11.63 41.8174L9.27259 49.0727L15.4443 44.5887L21.6161 49.0727L19.2587 41.8174L25.4304 37.3334H17.8017L15.4443 30.0781Z" fill="#FAFAF9"></path>
<path d="M73.0479 125.117L75.4052 132.372H83.0339L76.8622 136.856L79.2196 144.112L73.0479 139.628L66.8761 144.112L69.2335 136.856L63.0618 132.372H70.6905L73.0479 125.117Z" fill="#FAFAF9"></path>
</g>
<defs>
<clipPath id="clip0_1632_7077">
<rect width="144" height="144" fill="white" transform="translate(0.333008 0.974609)"></rect>
</clipPath>
</defs>
</svg>
