<svg width="145" height="145" viewBox="0 0 145 145" fill="none" xmlns="http://www.w3.org/2000/svg">
<circle cx="72.667" cy="72.9746" r="69.75" stroke="#FAFAF9" stroke-width="4.5"></circle>
<path d="M25.9619 20.4336C38.5435 25.288 54.8495 28.2174 72.6646 28.2174C90.4797 28.2174 106.786 25.288 119.367 20.4336" stroke="#FAFAF9" stroke-width="4.5"></path>
<path d="M25.9619 125.516C38.5435 120.661 54.8495 117.732 72.6646 117.732C90.4797 117.732 106.786 120.661 119.367 125.516" stroke="#FAFAF9" stroke-width="4.5"></path>
<path fill-rule="evenodd" clip-rule="evenodd" d="M99.6263 104.108C98.002 110.774 95.8798 116.783 93.3817 121.918C87.2528 134.516 79.6451 140.475 72.6604 140.475C65.6757 140.475 58.0681 134.516 51.9391 121.918C49.441 116.783 47.3189 110.774 45.6946 104.108H41.0682C46.7171 128.284 58.7405 144.975 72.6604 144.975C86.5803 144.975 98.6038 128.284 104.253 104.108H99.6263ZM100.081 43.7832H104.689C99.2409 18.5634 86.9499 0.974609 72.6604 0.974609C58.3709 0.974609 46.0799 18.5634 40.6318 43.7832H45.2399C46.9142 36.3387 49.2008 29.6604 51.9391 24.0315C58.0681 11.4332 65.6757 5.47461 72.6604 5.47461C79.6451 5.47461 87.2528 11.4332 93.3817 24.0315C96.1201 29.6604 98.4066 36.3387 100.081 43.7832Z" fill="#FAFAF9"></path>
<path d="M42.1525 86.9638V96.3287H20.0439V86.9638H24.3007V63.3654H20.0439V54.0005H42.1525V63.3654H37.9223V86.9638H42.1525Z" fill="#FAFAF9"></path>
<path d="M65.9105 97.1002C64.4561 97.1002 63.2146 96.9938 62.1858 96.7809C61.1571 96.5681 60.1993 96.2222 59.3125 95.7433C58.4434 95.2645 57.5123 94.6437 56.519 93.881L55.5879 96.3287H46.9945V83.3721H55.5347C56.0845 84.862 56.927 85.9173 58.0621 86.5381C59.215 87.1412 60.625 87.4427 62.2923 87.4427C63.321 87.4427 64.1989 87.2387 64.9261 86.8308C65.6533 86.4051 66.0169 85.8464 66.0169 85.1547C66.0169 84.2856 65.6445 83.6382 64.8995 83.2125C64.1546 82.7691 63.1081 82.3612 61.7602 81.9887C60.0397 81.5276 58.4789 81.0398 57.0777 80.5254C55.6943 80.0111 54.4527 79.479 53.3531 78.9292C51.1537 77.8295 49.3801 76.2687 48.0321 74.2467C46.6841 72.2248 46.0102 69.5377 46.0102 66.1855C46.0102 63.6137 46.5689 61.3434 47.6863 59.3747C48.7859 57.4237 50.3645 55.9072 52.4219 54.8253C54.4971 53.7256 56.9358 53.1758 59.7382 53.1758C63.1613 53.1758 65.8662 54.2666 67.8526 56.4482L69.2095 53.9473H76.845V66.6378H68.6774C67.9147 65.0415 67.0722 63.933 66.1499 63.3122C65.2276 62.6914 63.9595 62.381 62.3455 62.381C61.1216 62.381 60.1727 62.6027 59.4988 63.0461C58.8248 63.4718 58.4878 64.066 58.4878 64.8287C58.4878 65.68 58.9755 66.3274 59.951 66.7708C60.9088 67.2319 62.2745 67.6576 64.0482 68.0478C67.1521 68.7573 69.8303 69.653 72.0828 70.7349C74.2821 71.8168 76.038 73.351 77.3505 75.3375C78.6808 77.3063 79.3459 79.8515 79.3459 82.9731C79.3459 85.6158 78.7961 88.0102 77.6964 90.1564C76.579 92.3025 74.9916 93.9963 72.9341 95.2379C70.8945 96.4794 68.5532 97.1002 65.9105 97.1002Z" fill="#FAFAF9"></path>
<path d="M104.354 97.1002C99.9379 97.1002 96.1157 96.1513 92.8877 94.2535C89.6774 92.3557 87.2298 89.7484 85.5448 86.4317C83.8776 83.115 83.0439 79.3282 83.0439 75.0715C83.0439 70.6551 83.8776 66.8063 85.5448 63.525C87.212 60.226 89.6419 57.6808 92.8345 55.8895C96.0448 54.0803 99.8847 53.1758 104.354 53.1758C108.806 53.1758 112.637 54.0715 115.848 55.8629C119.04 57.672 121.47 60.226 123.137 63.525C124.822 66.824 125.665 70.6728 125.665 75.0715C125.665 79.3282 124.831 83.115 123.164 86.4317C121.497 89.7484 119.049 92.3557 115.821 94.2535C112.611 96.1513 108.788 97.1002 104.354 97.1002ZM104.354 87.6555C106.27 87.6555 107.733 86.4938 108.744 84.1703C109.773 81.8468 110.287 78.7429 110.287 74.8586C110.287 71.0808 109.791 68.0922 108.797 65.8928C107.822 63.6935 106.341 62.5939 104.354 62.5939C102.35 62.5939 100.86 63.6935 99.8847 65.8928C98.9092 68.0922 98.4215 71.0808 98.4215 74.8586C98.4215 78.7429 98.927 81.8468 99.9379 84.1703C100.949 86.4938 102.421 87.6555 104.354 87.6555Z" fill="#FAFAF9"></path>
</svg>
